/* XPM */
static char *battery[] = {
/* columns rows colors chars-per-pixel */
"25 25 2 1 ",
"  c None",
". c #E2E2E4",
/* pixels */
"                         ",
"                         ",
"                         ",
"            .            ",
"           ...           ",
"        .........        ",
"        .........        ",
"        ..     ..        ",
"       ..       ..       ",
"       ..   .   ..       ",
"       ..   .   ..       ",
"       ..  ..   ..       ",
"       ..  .... ..       ",
"       .. ....  ..       ",
"       ..  ...  ..       ",
"       ..   ..  ..       ",
"       ..   .   ..       ",
"       ..   .   ..       ",
"       ..       ..       ",
"        .........        ",
"        .........        ",
"         .......         ",
"                         ",
"                         ",
"                         "
};
