/* XPM */
static char *_56879e2675c49aa9415c7809c4b8346ZMDA1P4aHFVcS69f[] = {
/* columns rows colors chars-per-pixel */
"24 24 78 1 ",
"  c None",
". c black",
"X c #020100",
"o c gray1",
"O c #070600",
"+ c #040404",
"@ c #090909",
"# c gray5",
"$ c #0E0E0E",
"% c #151202",
"& c #1B1804",
"* c #131313",
"= c #181818",
"- c #201C04",
"; c #2B2405",
": c #393007",
"> c #3D3407",
", c gray13",
"< c #3A3A3A",
"1 c #5B542F",
"2 c #474539",
"3 c #434343",
"4 c #444444",
"5 c #505050",
"6 c #535250",
"7 c #525251",
"8 c #535353",
"9 c #545453",
"0 c #5B5B5B",
"q c #64635C",
"w c gray40",
"e c gray45",
"r c #897210",
"t c #897310",
"y c #9D8612",
"u c #B89916",
"i c #BD9E17",
"p c #BE9E17",
"a c #B79E1F",
"s c #D0AD1A",
"d c #DBB51A",
"f c #C9AD20",
"g c #E5C219",
"h c #F3CA1D",
"j c #F8CD1E",
"k c #FDD61A",
"l c #FED71B",
"z c #FDD11E",
"x c #FED21F",
"c c #F9D027",
"v c #FED52F",
"b c #FEDA31",
"n c #92874E",
"m c #848177",
"M c #C2AC4C",
"N c #FEE159",
"B c #898882",
"V c #898989",
"C c gray54",
"Z c #9A9A9A",
"A c #A4A4A4",
"S c gray67",
"D c #B2B0A8",
"F c #B1B1B1",
"G c #F9E181",
"H c #FDED9C",
"J c gray77",
"K c #C6C6C6",
"L c gray83",
"P c #E6E5E2",
"I c #EEEEEE",
"U c gray94",
"Y c #F1F1F1",
"T c #F8F9F9",
"R c #F9F9F9",
"E c #FDFDFD",
"W c #FDFEFE",
"Q c #FEFEFE",
/* pixels */
"                        ",
"          ...           ",
"         ......         ",
"         ......         ",
"         88$F8.         ",
"         3q29V.         ",
"         1glfn.         ",
"         ylkka..        ",
"         mNbHP@.        ",
"        +JEEEEw..       ",
"        0EEEEEK..       ",
"       .FEEEEEE<..      ",
"       ,REEEEEES...     ",
"      .VEEEEEEEY+..     ",
"      .LEEEEEEEE*..     ",
"     O.YEEEEEEEE$..     ",
"     dpBEEEEEEEG&.%     ",
"    xxxr9YEEEEEvt:p     ",
"   kxjxj;4EEEERcxxxz    ",
"   cxxxxsDEEEY9hxxxxx   ",
"   xxzxxxMZAe=&xxxxx    ",
"   xxzzzxu....>xjxx     ",
"       xx      xx       ",
"                        "
};
