/* XPM */
static char *_91d217eb6a54f0fae941454ad829a56gVM7uNJRXnoPDChR[] = {
/* columns rows colors chars-per-pixel */
"48 48 177 2 ",
"   c None",
".  c black",
"X  c #020200",
"o  c #030200",
"O  c gray1",
"+  c #060500",
"@  c #070601",
"#  c #040403",
"$  c #040404",
"%  c #070707",
"&  c #090701",
"*  c #0B0A01",
"=  c #0F0C01",
"-  c #0D0C05",
";  c gray4",
":  c #0B0B0B",
">  c gray5",
",  c #0E0E0E",
"<  c gray6",
"1  c #131002",
"2  c #1F1B04",
"3  c #111110",
"4  c #111111",
"5  c gray7",
"6  c #131313",
"7  c #181818",
"8  c #1E1E1E",
"9  c gray12",
"0  c #231E06",
"q  c #262004",
"w  c #272204",
"e  c #322A06",
"r  c #332B06",
"t  c #3E3606",
"y  c #222222",
"u  c #232323",
"i  c gray15",
"p  c #282828",
"a  c #2A2A2A",
"s  c gray17",
"d  c #2D2D2D",
"f  c #343434",
"g  c #353535",
"h  c #373737",
"j  c #393939",
"k  c #3A3A3A",
"l  c #3C3C3C",
"z  c #3F3F3F",
"x  c #4F4209",
"c  c #50450A",
"v  c #50440B",
"b  c #574A0A",
"n  c #5F500B",
"m  c #5E530C",
"M  c #584F1C",
"N  c #62520C",
"B  c #64540C",
"V  c #67590B",
"C  c #67590D",
"Z  c #7E6B0F",
"A  c #504A23",
"S  c #454544",
"D  c gray27",
"F  c #464646",
"G  c #484848",
"H  c gray29",
"J  c #4B4B4B",
"K  c #4E4E4E",
"L  c #4F4F4E",
"P  c #565656",
"I  c #5D5D5D",
"U  c gray37",
"Y  c #696968",
"T  c DimGray",
"R  c #787566",
"E  c #717171",
"W  c #767676",
"Q  c gray48",
"!  c #7C7C7C",
"~  c #907C0F",
"^  c #826D10",
"/  c #857110",
"(  c #887310",
")  c #998113",
"_  c #9A8514",
"`  c #A18814",
"'  c #B9A01A",
"]  c #C0A117",
"[  c #D4B11A",
"{  c #D8B41A",
"}  c #E0BC1B",
"|  c #D1B72F",
" . c #E7C01C",
".. c #E8C11C",
"X. c #E9C21C",
"o. c #EBC41C",
"O. c #F7CD1E",
"+. c #FACF1E",
"@. c #FDD61A",
"#. c #FED71A",
"$. c #FED71B",
"%. c #F9D01E",
"&. c #FBD01E",
"*. c #FCD11E",
"=. c #FDD11E",
"-. c #FED11F",
";. c #FDD21F",
":. c #FED21F",
">. c #FED81B",
",. c #ECC627",
"<. c #F1CE20",
"1. c #F9CF21",
"2. c #F5D225",
"3. c #FED720",
"4. c #FDD826",
"5. c #FED636",
"6. c #FEDA30",
"7. c #FEDA31",
"8. c #FED73C",
"9. c #8E896C",
"0. c #F4D242",
"q. c #FED942",
"w. c #FDDB4F",
"e. c #FEE155",
"r. c #FEE25E",
"t. c #818181",
"y. c #838383",
"u. c #888888",
"i. c gray54",
"p. c gray56",
"a. c #909090",
"s. c gray58",
"d. c #979797",
"f. c #A09F98",
"g. c #A4A4A4",
"h. c gray66",
"j. c #B1B1B1",
"k. c #B6B6B6",
"l. c gray72",
"z. c #FDE983",
"x. c #EBE0AD",
"c. c #C0C0C0",
"v. c #C1C1C1",
"b. c #C6C6C6",
"n. c gray78",
"m. c #C8C8C6",
"M. c gray80",
"N. c #D0D0D0",
"B. c #DAD9D2",
"V. c gray85",
"C. c gray86",
"Z. c #F8F0C5",
"A. c #FAF3D3",
"S. c #FEF6D0",
"D. c #E2E2E2",
"F. c #E4E4E4",
"G. c gray90",
"H. c #E7E7E7",
"J. c #E9E9E9",
"K. c #E9E9EA",
"L. c #EAEAEA",
"P. c #F0F0EF",
"I. c #FDFAEA",
"U. c gray94",
"Y. c #F2F2F1",
"T. c gray95",
"R. c #F3F3F3",
"E. c gray96",
"W. c gray97",
"Q. c #FDFBF0",
"!. c #F8F8F8",
"~. c #F9F9F9",
"^. c gray98",
"/. c gray99",
"(. c #FDFDFD",
"). c #FDFEFE",
"_. c #FEFEFE",
/* pixels */
"                                                                                                ",
"                                                                                                ",
"                                            . . .                                               ",
"                                        . . . . . . . .                                         ",
"                                      . . . . . . . . . .                                       ",
"                                    . . . . . . . . . . . .                                     ",
"                                    . . . . . . . . . . . .                                     ",
"                                    . . . . . . . . . . . .                                     ",
"                                    . f p . . . D s.j . . . .                                   ",
"                                    9 R.R.p . j !.R.R.u . . .                                   ",
"                                    H L Y E . ! l.3 h.t.. . .                                   ",
"                                    D f p 9.w R t.# T p.. . .                                   ",
"                                    : f._ @.>.>.| M B.j . . .                                   ",
"                                    # ' @.$.@.@.@.>.2.t . . .                                   ",
"                                    V >.@.$.@.@.>.@.@.~ . . .                                   ",
"                                    2 O.$.$.$.$.>.@.6.A . . .                                   ",
"                                    , Z.4.@.@.@.$.z.Q.g.. . . .                                 ",
"                                    < !.S.e.6.r.S.).).!.i . . . .                               ",
"                                  . l ).(.).).).).(.(.).d.. . . .                               ",
"                                . , C.).(.).(.(.).).(.).R.3 . . . .                             ",
"                                . t.).).).).).).).).).).).I . . . . .                           ",
"                              . % G.).).(.).(.(.).(.(.).(.c.. . . . .                           ",
"                            . . l ).).).(.).(.(.).(.).).).).h . . . . .                         ",
"                            . . p.).).).).).).).).).).).).).j.. . . . . .                       ",
"                          . . < J.(.).(.(.).(.(.).(.(.).(.(.(.p . . . . .                       ",
"                          . . W (.(.).(.(.).(.(.).(.(.).(.(.).u.. . . . .                       ",
"                          . o D.).).).).).).).).).).).).).).).N.. . . . . .                     ",
"                        . . G ).(.(.).(.(.).(.(.).(.(.).(.(.).E., . . . . .                     ",
"                        . . a.).(.(.).(.(.).(.(.).(.(.).(.(.).).u . . . . .                     ",
"                      . . . b.).).).).).).).).).).).).).).).).).d . . . . . .                   ",
"                      . . . F.).(.(.).(.(.).(.(.).(.(.).(.(.).).p . . . . . .                   ",
"                      o & . V.).(.(.).(.(.).(.(.).(.(.(.(.(.(.(.3 . . . . . .                   ",
"                      [ } e Q ).(.(.).).).).).).).).).).).).I.x.= . . . . .                     ",
"                    +.-.-. .0 i.(.).).(.(.).(.(.).(.(.).).).w.-.n . . . . b ..                  ",
"                  $.3.-.-.-.] o G H.).(.(.).(.(.).(.(.)./.).q.-.( . . . q o.3.                  ",
"              -.-.-.+.1.-.-.-.B . 9 M.).(.).(.(.).(.(.)./.).8.-.-.` B ^  .-.1.                  ",
"            -.-.1.3.-.-.-.-.-...1 o : l.).).).).).).).).).).5.-.-.$.3.+.3.+.-.$.                ",
"            -.-.+.$.*.-.-.*.-.$.~ o o J ).).(.(.).(.(.).(.J.,.-.1.3.-.$.+.+.-.-.-.              ",
"            3.-.-.-.-.-.-.-.-.-.+.v 7 k.).).).).).).).).J.f { -.+.-.-.-.3.-.-.-.-.-.            ",
"            +.-.-.-.-.$.*.-.*.-.+.1.A.(.(.).).).).(.).b.u * +.-.-.-.-.-.+.+.-.-.-.-.            ",
"            -.-.-.-.-.-.-.-.-.-.-.-.8.b././.).).W.v.I % . r -.-.-.-.-.-.+.+.1.3.-.              ",
"          3.$.-.$.-.-.-.-.$.-.-.-.-.1.x u K P z 6 . . . . x -.-.-.-.$.-.-.3.+.$.                ",
"            -.-.-.+.-.-.-.*.-.-.-.-.3./ . . . . . . . . . C -.-.-.-.-.-.-.-.                    ",
"                  3.-.-.*.-.*.-.-.-.+.n * .           . = Z -.-.-.-.-.-.                        ",
"                          $.3.1.$.3.O.                      3.-.$.-.-.                          ",
"                              -.-.-.                          -.3.+.                            ",
"                                                                                                ",
"                                                                                                "
};
