/* XPM */
static char *_acc31eeb34f4e1cf75f88397925eb06dCCiaRgF8bV7yybV[] = {
/* columns rows colors chars-per-pixel */
"16 16 51 1 ",
"  c None",
". c black",
"X c #040400",
"o c gray4",
"O c #1D1A08",
"+ c #101010",
"@ c #191919",
"# c #1E1E1E",
"$ c #2B2405",
"% c #393007",
"& c #2A281C",
"* c #222222",
"= c #2D2D2D",
"- c #3B3A36",
"; c #46453C",
": c #5E5943",
"> c #686867",
", c DimGray",
"< c #78766E",
"1 c gray50",
"2 c #836D10",
"3 c #8A7310",
"4 c #B09215",
"5 c #998521",
"6 c #DCB61B",
"7 c #DFBB27",
"8 c #FED71B",
"9 c #FCD01E",
"0 c #FDD11E",
"q c #FDD11F",
"w c #FED11F",
"e c #FED21F",
"r c #F7CD22",
"t c #FED92B",
"y c #E1C432",
"u c #AD9F57",
"i c #898989",
"p c #929292",
"a c #959595",
"s c #AEACA4",
"d c gray66",
"f c #B2B2B2",
"g c #CABF91",
"h c #FEE987",
"j c gray76",
"k c gray81",
"l c gray89",
"z c #E4E4E4",
"x c gray97",
"c c #F8F8F8",
"v c #FEFEFE",
/* pixels */
"                ",
"      ....      ",
"      o.#.      ",
"      >;a*      ",
"      58yO      ",
"      uth-.     ",
"     +zvvd.     ",
"     ,vvvx@.    ",
"    .kvvvv1.    ",
"    =vvvvvf..   ",
"    :vvvvvs.X   ",
"   e6<cvvv7$4   ",
"  eee3ivvlreee  ",
"  eeeegjp&eeee  ",
"   eee2  %ee    ",
"                "
};
